<?xml version="1.0" encoding="UTF-8" standalone="no"?>
<svg
   xmlns:dc="http://purl.org/dc/elements/1.1/"
   xmlns:cc="http://creativecommons.org/ns#"
   xmlns:rdf="http://www.w3.org/1999/02/22-rdf-syntax-ns#"
   xmlns:svg="http://www.w3.org/2000/svg"
   xmlns="http://www.w3.org/2000/svg"
   xmlns:sodipodi="http://sodipodi.sourceforge.net/DTD/sodipodi-0.dtd"
   xmlns:inkscape="http://www.inkscape.org/namespaces/inkscape"
   version="1.0"
   width="983.000000pt"
   height="311.000000pt"
   viewBox="0 0 983.000000 311.000000"
   preserveAspectRatio="xMidYMid meet"
   id="svg3519"
   inkscape:version="0.91 r13725"
   sodipodi:docname="logoText.svg">
  <defs
     id="defs3553" />
  <sodipodi:namedview
     pagecolor="#a9a9a9"
     bordercolor="#666666"
     borderopacity="1"
     objecttolerance="10"
     gridtolerance="10"
     guidetolerance="10"
     inkscape:pageopacity="0"
     inkscape:pageshadow="2"
     inkscape:window-width="1440"
     inkscape:window-height="851"
     id="namedview3551"
     showgrid="false"
     inkscape:zoom="0.32797558"
     inkscape:cx="614.375"
     inkscape:cy="194.375"
     inkscape:window-x="0"
     inkscape:window-y="1"
     inkscape:window-maximized="1"
     inkscape:current-layer="svg3519" />
  <metadata
     id="metadata3521">
Created by potrace 1.13, written by Peter Selinger 2001-2015
<rdf:RDF>
  <cc:Work
     rdf:about="">
    <dc:format>image/svg+xml</dc:format>
    <dc:type
       rdf:resource="http://purl.org/dc/dcmitype/StillImage" />
    <dc:title></dc:title>
  </cc:Work>
</rdf:RDF>
</metadata>
  <g
     transform="translate(0.000000,311.000000) scale(0.100000,-0.100000)"
     fill="#000000"
     stroke="none"
     id="g3523"
     style="fill:#ffffff">
    <path
       d="M424 3095 c-188 -40 -340 -176 -394 -353 -76 -250 22 -522 230 -638 156 -88 379 -102 584 -37 136 43 124 11 123 323 l0 270 -214 0 -213 0 0 -100 0 -100 73 -1 c39 -1 84 -1 99 -1 l27 -1 -2 -93 -1 -93 -43 -12 c-64 -17 -208 -8 -258 18 -113 59 -166 160 -160 304 7 181 128 303 300 303 77 -1 162 -31 205 -74 l21 -21 20 23 c11 13 33 37 47 53 15 17 42 48 60 69 l33 38 -33 25 c-50 37 -121 71 -185 89 -75 20 -242 25 -319 9z"
       id="path3525"
       style="fill:#ffffff" />
    <path
       d="M7432 3089 c-244 -62 -389 -242 -397 -494 -9 -252 118 -451 340 -534 125 -47 302 -48 425 -3 222 81 349 266 351 514 3 248 -139 439 -381 513 -82 25 -247 27 -338 4z m294 -238 c160 -78 208 -329 95 -483 -59 -80 -144 -119 -245 -113 -118 7 -206 71 -251 181 -35 84 -31 205 9 286 69 144 245 202 392 129z"
       id="path3527"
       style="fill:#ffffff" />
    <path
       d="M1771 3080 l-35 -5 1 -336 c0 -367 4 -407 37 -484 82 -183 326 -276 553 -210 136 40 244 145 280 275 4 14 9 190 10 393 3 295 1 367 -9 368 -29 2 -231 -1 -234 -4 -1 -1 -4 -160 -6 -352 l-3 -350 -28 -43 c-60 -93 -216 -111 -290 -35 -56 59 -58 74 -58 444 l-1 339 -26 1 c-132 3 -161 3 -191 -1z"
       id="path3529"
       style="fill:#ffffff" />
    <path
       d="M3417 3082 c-9 -2 -17 -9 -18 -15 -1 -15 -1 -953 0 -988 l1 -26 125 -1 125 -1 0 515 c0 483 -1 514 -17 515 -79 3 -203 3 -216 1z"
       id="path3531"
       style="fill:#ffffff" />
    <path
       d="M4476 3080 l-39 -5 0 -485 c1 -267 2 -497 2 -512 l1 -27 323 2 322 2 2 108 3 107 -200 0 -200 0 0 408 0 407 -87 0 c-49 0 -106 -2 -127 -5z"
       id="path3533"
       style="fill:#ffffff" />
    <path
       d="M5808 3082 l-28 -3 0 -513 0 -513 325 0 325 0 0 108 0 109 -199 0 -200 0 1 400 c1 220 -1 403 -5 406 -6 7 -173 11 -219 6z"
       id="path3535"
       style="fill:#ffffff" />
    <path
       d="M8922 3082 l-32 -3 2 -512 3 -512 120 0 120 0 -2 335 -2 334 31 -49 c18 -28 76 -122 130 -210 54 -88 103 -167 108 -175 5 -8 40 -64 78 -125 l67 -110 143 -1 142 -2 0 514 c0 404 -3 514 -12 515 -19 1 -135 1 -188 0 l-45 -1 2 -117 c2 -132 5 -510 4 -533 -1 -16 -34 34 -205 315 -47 77 -114 185 -148 239 l-63 99 -110 1 c-60 1 -125 0 -143 -2z"
       id="path3537"
       style="fill:#ffffff" />
    <path
       d="M647 1342 c-19 -4 -17 38 -19 -493 l-1 -317 -26 -53 c-30 -62 -70 -90 -138 -95 -77 -6 -154 44 -168 108 -7 31 -19 34 -75 17 -36 -11 -37 -13 -29 -42 31 -108 137 -178 271 -178 141 0 237 78 265 215 8 39 11 806 4 826 -6 14 -44 20 -84 12z"
       id="path3539"
       style="fill:#ffffff" />
    <path
       d="M2135 992 c-92 -31 -160 -93 -203 -182 -22 -48 -26 -68 -26 -155 -1 -94 1 -105 32 -167 40 -81 102 -139 180 -168 106 -40 241 -29 327 27 40 26 95 78 95 91 0 4 -15 19 -34 34 l-33 27 -34 -36 c-54 -55 -103 -76 -184 -77 -78 -1 -135 21 -182 72 -38 40 -86 160 -66 163 5 1 130 3 278 4 149 1 274 3 278 4 12 2 6 99 -11 155 -26 93 -83 160 -167 197 -66 30 -181 34 -250 11z m226 -97 c15 -8 40 -31 54 -50 29 -37 57 -116 47 -131 -4 -6 -103 -9 -229 -9 -252 0 -241 -4 -204 78 57 124 209 175 332 112z"
       id="path3541"
       style="fill:#ffffff" />
    <path
       d="M3956 989 c-48 -18 -67 -33 -103 -83 l-23 -30 0 52 c0 57 -4 61 -61 65 l-36 3 3 -335 c1 -185 2 -339 3 -342 1 -4 22 -6 48 -5 l48 1 1 205 c0 214 6 253 48 317 31 48 94 77 161 74 60 -2 61 -1 68 60 l5 37 -59 -1 c-32 0 -79 -8 -103 -18z"
       id="path3543"
       style="fill:#ffffff" />
    <path
       d="M5383 995 c-121 -37 -206 -134 -239 -270 -10 -42 -5 -127 11 -181 54 -187 227 -283 428 -237 64 14 159 71 184 110 15 23 15 25 -18 53 l-34 28 -40 -38 c-22 -21 -56 -46 -75 -56 -48 -24 -162 -25 -212 0 -74 36 -132 114 -139 186 l-4 35 280 0 280 0 -2 72 c-2 125 -65 228 -170 279 -65 32 -180 41 -250 19z m185 -86 c67 -22 124 -96 134 -174 l3 -30 -227 0 c-256 0 -245 -4 -212 73 48 117 174 171 302 131z"
       id="path3545"
       style="fill:#ffffff" />
    <path
       d="M7210 994 c-59 -21 -97 -49 -121 -88 l-19 -31 0 53 c0 33 -5 54 -12 57 -27 9 -65 13 -75 7 -6 -5 -10 -127 -9 -344 l1 -336 50 1 50 2 0 211 c1 222 4 239 52 316 55 89 201 108 265 35 36 -40 42 -86 42 -328 l1 -236 50 1 50 1 1 200 c1 231 5 268 43 327 34 54 85 80 153 80 62 -1 106 -26 135 -77 29 -52 35 -110 37 -339 l1 -191 35 -2 c69 -3 65 -16 64 230 -1 124 -7 246 -13 276 -20 96 -84 161 -177 181 -110 24 -221 -10 -277 -84 l-31 -42 -31 45 c-16 24 -47 53 -68 64 -51 26 -140 31 -197 11z"
       id="path3547"
       style="fill:#ffffff" />
    <path
       d="M9119 990 c-10 -7 15 -72 96 -255 12 -27 57 -133 100 -234 l79 -183 -18 -52 c-32 -92 -77 -176 -102 -192 -27 -18 -79 -24 -110 -13 -18 6 -23 3 -28 -14 -12 -47 -11 -47 103 -47 l109 0 31 42 c17 23 58 112 92 197 34 86 67 170 74 186 7 17 50 125 95 240 45 116 85 219 90 230 37 82 40 95 22 96 -9 0 -30 2 -45 3 -16 1 -35 -3 -43 -9 -7 -5 -56 -129 -109 -275 -53 -146 -100 -268 -104 -273 -4 -4 -56 115 -115 265 -60 150 -111 276 -115 280 -9 10 -88 16 -102 8z"
       id="path3549"
       style="fill:#ffffff" />
  </g>
</svg>
