<?xml version="1.0" standalone="no"?>
<!DOCTYPE svg PUBLIC "-//W3C//DTD SVG 20010904//EN"
 "http://www.w3.org/TR/2001/REC-SVG-20010904/DTD/svg10.dtd">
<svg version="1.0" xmlns="http://www.w3.org/2000/svg"
 width="1121.000000pt" height="1121.000000pt" viewBox="0 0 1121.000000 1121.000000"
 preserveAspectRatio="xMidYMid meet">
<metadata>
Created by potrace 1.11, written by Peter Selinger 2001-2013
</metadata>
<g transform="translate(0.000000,1121.000000) scale(0.100000,-0.100000)"
fill="#000000" stroke="none">
<path d="M4735 11200 c-491 -35 -974 -130 -1415 -277 -565 -188 -1153 -491
-1539 -792 -676 -526 -1233 -1362 -1395 -2091 -94 -427 -46 -820 161 -1314
113 -270 244 -514 594 -1113 120 -204 254 -437 298 -517 754 -1361 1138 -2860
1153 -4496 l2 -205 6 150 c11 229 11 985 0 1215 -54 1154 -233 2069 -575 2930
-131 330 -267 614 -545 1140 -301 568 -398 778 -490 1059 -100 305 -135 519
-135 841 1 201 4 254 23 363 71 394 221 727 490 1082 163 215 508 533 785 723
1185 814 2938 1121 4440 777 1101 -253 2008 -836 2601 -1674 36 -52 66 -89 66
-83 0 20 -60 144 -121 250 -221 384 -556 771 -924 1066 -673 540 -1470 852
-2436 952 -179 18 -853 27 -1044 14z"/>
<path d="M4920 9953 c-627 -46 -1210 -173 -1715 -374 -154 -61 -459 -214 -592
-297 -598 -374 -984 -870 -1109 -1427 -31 -138 -43 -411 -25 -560 42 -327 169
-632 389 -929 100 -135 347 -379 497 -492 206 -154 463 -304 640 -374 278
-110 733 -190 1380 -242 218 -18 1183 -18 1400 0 1005 81 1588 262 1734 537
23 45 26 60 25 155 -3 462 -391 799 -1126 979 -464 114 -967 166 -1848 192
-365 11 -562 7 -591 -12 -8 -5 -10 -9 -5 -9 22 0 875 -106 1141 -141 352 -47
487 -69 667 -109 594 -135 935 -278 1141 -479 82 -79 118 -134 147 -221 29
-86 19 -121 -53 -187 -65 -59 -142 -101 -282 -153 -310 -117 -787 -203 -1325
-240 -202 -14 -732 -14 -930 0 -996 71 -1719 328 -2131 757 -178 186 -284 379
-340 623 -30 127 -37 395 -15 570 78 615 332 1015 876 1377 1019 679 2362 828
3905 433 569 -145 1139 -357 1649 -612 98 -49 180 -87 182 -85 8 8 -242 243
-351 330 -712 570 -1601 909 -2584 986 -121 10 -638 13 -751 4z"/>
<path d="M10729 7305 c-180 -93 -721 -268 -1079 -349 -229 -51 -1178 -212
-1520 -258 -136 -18 -75 -25 139 -15 288 13 775 12 891 -2 224 -26 333 -65
425 -152 70 -66 91 -116 170 -414 120 -447 276 -935 479 -1493 53 -145 99
-288 102 -318 28 -235 -233 -487 -678 -654 -49 -19 -86 -35 -84 -37 7 -7 564
137 691 179 221 71 335 142 387 240 19 36 22 58 22 133 -1 116 -25 205 -150
552 -255 711 -386 1147 -514 1713 -63 277 -51 366 61 485 71 75 178 141 414
256 210 103 317 159 300 158 -5 0 -31 -11 -56 -24z"/>
</g>
</svg>
