<svg xmlns="http://www.w3.org/2000/svg" viewBox="0 0 180.19 180.19"><defs><style>.cls-1{fill:#01cfaf;}.cls-2{fill:#f6fcfb;}.cls-3{fill:#f1fcfa;}</style></defs><title>rg</title><g id="Calque_2" data-name="Calque 2"><g id="Calque_1-2" data-name="Calque 1"><path class="cls-1" d="M.1.1q88,0,176-.1c3.42,0,4.11.67,4.1,4.1q-.2,86,0,172c0,3.42-.67,4.11-4.1,4.1q-86-.2-172,0c-3.42,0-4.11-.67-4.1-4.1Q.2,88.1.1.1ZM49.69,55.83q-10.25,0-20.49,0c-1.3,0-2.74-.25-2.91,1.78-.15,1.82.52,2.87,2.34,3.15.82.13,1.64.31,2.46.42,4.43.55,6.91,3,7.29,7.48.21,2.48.45,5,.45,7.47q.06,28.24,0,56.48c0,7.91.93,16.43-10.82,16.94-1.7.07-1.79,1.66-1.71,3.08.1,1.73,1.38,1.62,2.53,1.63q17,0,34,0c1.38,0,2.69,0,2.82-1.92s-.79-2.74-2.56-2.93c-1.16-.12-2.32-.27-3.47-.42-6.23-.84-8.19-2.63-8.41-9-.3-9-.17-18-.17-27,0-1.09-.24-2.28,1.26-2.9,3.9-1.62,11.15.7,13.27,4.34,6.3,10.8,12.89,21.41,20.87,31.08,6.73,8.17,15.51,11.08,25.86,9.71,1.51-.2,3.06-.4,3.17-2.46.08-1.52-.33-2.45-2.07-2.77-6.83-1.25-11.43-5.86-15.72-10.83a214.07,214.07,0,0,1-19-26.28c-2-3.25-2-4.57,2-6.19A28,28,0,0,0,98,77.09C96.45,65.55,87.82,57.94,74.14,56,66,54.77,57.84,55.62,49.69,55.83Zm68.06-5.08h.33c0-2.83-.11-5.67,0-8.49.26-5.4,2.27-10,7.77-11.63,5.28-1.62,9.89-.17,13,4.75,2.19,3.47,4.47.7,6.42-.14,2.94-1.28.69-3.13-.2-4.37-4.66-6.57-11.38-8.33-19-7.46s-13,4.81-14.88,12.17a60.31,60.31,0,0,0,0,30.15c1.67,6.47,6.41,10.31,13,11.69,13.3,2.77,23-4.64,24-18.28.75-10.83.75-10.83-9.88-10.83-2,0-4,0-6,0-2.47,0-2.37,1.77-2.39,3.5s0,3.42,2.5,3.38c1.83,0,3.66.05,5.5,0s2.22.87,2.38,2.47c.64,6.21-3.14,11.59-8.94,12.53-6.87,1.12-12-2.3-13.09-9C117.85,57.77,117.94,54.24,117.74,50.75Z"/><path class="cls-2" d="M49.69,55.83c8.15-.21,16.3-1.05,24.45.13,13.68,2,22.31,9.59,23.87,21.13A28,28,0,0,1,80.6,106.72c-4,1.62-4,2.94-2,6.19a214.07,214.07,0,0,0,19,26.28c4.29,5,8.89,9.58,15.72,10.83,1.74.32,2.15,1.25,2.07,2.77-.11,2.06-1.66,2.26-3.17,2.46-10.35,1.38-19.13-1.54-25.86-9.71-8-9.67-14.56-20.28-20.87-31.08-2.12-3.64-9.37-6-13.27-4.34-1.5.62-1.26,1.81-1.26,2.9,0,9-.13,18,.17,27,.22,6.37,2.18,8.16,8.41,9,1.16.16,2.31.3,3.47.42,1.77.18,2.69,1,2.56,2.93s-1.44,1.92-2.82,1.92q-17,0-34,0c-1.15,0-2.43.1-2.53-1.63-.09-1.42,0-3,1.71-3.08,11.75-.51,10.81-9,10.82-16.94q0-28.24,0-56.48c0-2.49-.25-5-.45-7.47-.38-4.47-2.86-6.93-7.29-7.48-.83-.1-1.64-.29-2.46-.42-1.82-.28-2.49-1.33-2.34-3.15.17-2,1.61-1.77,2.91-1.78Q39.44,55.81,49.69,55.83Zm1.31,27c0,5.5,0,11,0,16.49,0,1.86.28,3.28,2.56,3.41,6.33.37,12.67.86,18.77-1.51C81.23,97.76,86,89.17,84.67,79c-1.23-9.4-7-15.07-16.88-16.1-4.29-.44-8.64-.2-13-.31-2.57-.07-4,.68-3.88,3.68C51.15,71.8,51,77.31,51,82.81Z"/><path class="cls-3" d="M117.74,50.75c.2,3.49.11,7,.65,10.46,1.07,6.73,6.22,10.15,13.09,9,5.8-.94,9.58-6.32,8.94-12.53-.16-1.6-.69-2.48-2.38-2.47s-3.66-.07-5.5,0c-2.46,0-2.51-1.6-2.5-3.38s-.08-3.47,2.39-3.5c2,0,4,0,6,0,10.63,0,10.63,0,9.88,10.83-.94,13.64-10.68,21-24,18.28-6.63-1.38-11.38-5.22-13-11.69a60.31,60.31,0,0,1,0-30.15c1.87-7.36,7.41-11.31,14.88-12.17s14.29.89,19,7.46c.89,1.25,3.14,3.1.2,4.37-1.94.84-4.22,3.61-6.42.14-3.11-4.92-7.72-6.36-13-4.75-5.49,1.68-7.51,6.24-7.77,11.63-.14,2.82,0,5.66,0,8.49Z"/><path class="cls-1" d="M51,82.81c0-5.5.14-11-.06-16.49-.11-3,1.31-3.75,3.88-3.68,4.32.12,8.68-.13,13,.31,9.87,1,15.65,6.7,16.88,16.1C86,89.17,81.23,97.76,72.31,101.21c-6.1,2.36-12.44,1.88-18.77,1.51-2.28-.13-2.58-1.55-2.56-3.41C51,93.8,51,88.3,51,82.81Z"/></g></g></svg>